<svg width="16" height="16" viewBox="0 0 16 16" fill="none" xmlns="http://www.w3.org/2000/svg">
<path d="M11.836 9.3328C12.664 9.3328 13.3353 10.004 13.3353 10.8321V11.2157C13.3353 11.8118 13.1222 12.3884 12.7345 12.8413C11.6883 14.0636 10.0968 14.6669 7.99992 14.6669C5.90268 14.6669 4.312 14.0634 3.2678 12.8406C2.88129 12.388 2.66895 11.8124 2.66895 11.2172V10.8321C2.66895 10.004 3.34018 9.3328 4.1682 9.3328H11.836ZM11.836 10.3328H4.1682C3.89247 10.3328 3.66895 10.5563 3.66895 10.8321V11.2172C3.66895 11.5743 3.79635 11.9197 4.02826 12.1912C4.8638 13.1697 6.17438 13.6669 7.99992 13.6669C9.82546 13.6669 11.1372 13.1697 11.9748 12.1911C12.2074 11.9193 12.3353 11.5734 12.3353 11.2157V10.8321C12.3353 10.5563 12.1118 10.3328 11.836 10.3328ZM7.99992 1.33594C9.84087 1.33594 11.3333 2.82832 11.3333 4.66927C11.3333 6.51022 9.84087 8.0026 7.99992 8.0026C6.15897 8.0026 4.66658 6.51022 4.66658 4.66927C4.66658 2.82832 6.15897 1.33594 7.99992 1.33594ZM7.99992 2.33594C6.71125 2.33594 5.66658 3.38061 5.66658 4.66927C5.66658 5.95793 6.71125 7.0026 7.99992 7.0026C9.28858 7.0026 10.3333 5.95793 10.3333 4.66927C10.3333 3.38061 9.28858 2.33594 7.99992 2.33594Z" fill="#AEAEAE"/>
</svg>
