<svg width="16" height="16" viewBox="0 0 16 16" fill="none" xmlns="http://www.w3.org/2000/svg">
<path d="M12.1667 2C13.1792 2 14 2.82081 14 3.83333V12.1667C14 13.1792 13.1792 14 12.1667 14H3.83333C2.82081 14 2 13.1792 2 12.1667V3.83333C2 2.82081 2.82081 2 3.83333 2H12.1667ZM12.1667 3H3.83333C3.3731 3 3 3.3731 3 3.83333V12.1667C3 12.6269 3.3731 13 3.83333 13H12.1667C12.6269 13 13 12.6269 13 12.1667V3.83333C13 3.3731 12.6269 3 12.1667 3ZM6.66667 9.62623L10.9798 5.31311C11.175 5.11785 11.4916 5.11785 11.6869 5.31311C11.8644 5.49062 11.8805 5.7684 11.7353 5.96414L11.6869 6.02022L7.02022 10.6869C6.84271 10.8644 6.56493 10.8805 6.36919 10.7353L6.31311 10.6869L4.31311 8.68689C4.11785 8.49162 4.11785 8.17504 4.31311 7.97978C4.49062 7.80227 4.7684 7.78613 4.96414 7.93137L5.02022 7.97978L6.66667 9.62623L10.9798 5.31311L6.66667 9.62623Z" fill="#D5D5D5"/>
</svg>
