<svg width="16" height="16" viewBox="0 0 16 16" fill="none" xmlns="http://www.w3.org/2000/svg">
<path d="M3.50065 2.66797H12.5007C13.656 2.66797 14.6001 3.57227 14.6639 4.71169L14.6673 4.83464V11.168C14.6673 12.3233 13.763 13.2675 12.6236 13.3312L12.5007 13.3346H3.50065C2.3453 13.3346 1.40115 12.4303 1.33741 11.2909L1.33398 11.168V4.83464C1.33398 3.67928 2.23829 2.73514 3.3777 2.6714L3.50065 2.66797H12.5007H3.50065ZM13.6673 6.24997L8.23352 9.11043C8.10858 9.17619 7.96274 9.18558 7.83183 9.13861L7.76778 9.11043L2.33398 6.25063V11.168C2.33398 11.7801 2.80539 12.2821 3.40497 12.3308L3.50065 12.3346H12.5007C13.1128 12.3346 13.6148 11.8632 13.6635 11.2637L13.6673 11.168V6.24997ZM12.5007 3.66797H3.50065C2.88854 3.66797 2.38652 4.13938 2.33785 4.73895L2.33398 4.83464V5.12064L8.00065 8.10294L13.6673 5.11997V4.83464C13.6673 4.22252 13.1959 3.72051 12.5963 3.67184L12.5007 3.66797Z" fill="#AEAEAE"/>
</svg>
