<svg width="16" height="16" viewBox="0 0 16 16" fill="none" xmlns="http://www.w3.org/2000/svg">
<path d="M13.3512 11.3336C11.5099 14.5227 7.43203 15.6154 4.24292 13.7742C3.37444 13.2727 2.64332 12.5944 2.08646 11.7858C1.90029 11.5154 2.02072 11.1421 2.32978 11.0315C4.8414 10.1325 6.1866 9.09078 6.9672 7.60073C7.78897 6.03207 8.00134 4.31376 7.42646 1.95843C7.34696 1.63274 7.60421 1.32263 7.93899 1.34059C8.97696 1.39628 9.99102 1.69444 10.9106 2.22537C14.0997 4.0666 15.1924 8.1445 13.3512 11.3336ZM7.853 8.06478C7.0188 9.65716 5.64535 10.7975 3.30801 11.7307C3.71351 12.1946 4.19582 12.5923 4.74292 12.9081C7.45373 14.4732 10.92 13.5444 12.4851 10.8336C14.0502 8.1228 13.1214 4.65649 10.4106 3.09139C9.82592 2.75382 9.19739 2.52714 8.54915 2.41437C8.9806 4.67036 8.70235 6.4435 7.853 8.06478Z" fill="#AEAEAE"/>
</svg>
