<svg width="16" height="16" viewBox="0 0 16 16" fill="none" xmlns="http://www.w3.org/2000/svg">
<path d="M2.93104 3.03456L2.97945 2.97848C3.15697 2.80097 3.43474 2.78483 3.63048 2.93007L3.68656 2.97848L7.99967 7.29136L12.3128 2.97848C12.508 2.78322 12.8246 2.78322 13.0199 2.97848C13.2152 3.17374 13.2152 3.49032 13.0199 3.68558L8.70701 7.9987L13.0199 12.3118C13.1974 12.4893 13.2135 12.7671 13.0683 12.9628L13.0199 13.0189C12.8424 13.1964 12.5646 13.2126 12.3689 13.0673L12.3128 13.0189L7.99967 8.70603L3.68656 13.0189C3.4913 13.2142 3.17472 13.2142 2.97945 13.0189C2.78419 12.8237 2.78419 12.5071 2.97945 12.3118L7.29234 7.9987L2.97945 3.68558C2.80194 3.50807 2.78581 3.2303 2.93104 3.03456L2.97945 2.97848L2.93104 3.03456Z" fill="#0E6BE5"/>
<path d="M2.93104 3.03456L2.97945 2.97848C3.15697 2.80097 3.43474 2.78483 3.63048 2.93007L3.68656 2.97848L7.99967 7.29136L12.3128 2.97848C12.508 2.78322 12.8246 2.78322 13.0199 2.97848C13.2152 3.17374 13.2152 3.49032 13.0199 3.68558L8.70701 7.9987L13.0199 12.3118C13.1974 12.4893 13.2135 12.7671 13.0683 12.9628L13.0199 13.0189C12.8424 13.1964 12.5646 13.2126 12.3689 13.0673L12.3128 13.0189L7.99967 8.70603L3.68656 13.0189C3.4913 13.2142 3.17472 13.2142 2.97945 13.0189C2.78419 12.8237 2.78419 12.5071 2.97945 12.3118L7.29234 7.9987L2.97945 3.68558C2.80194 3.50807 2.78581 3.2303 2.93104 3.03456L2.97945 2.97848L2.93104 3.03456Z" fill="#565656" fill-opacity="0.76"/>
<path d="M2.93104 3.03456L2.97945 2.97848C3.15697 2.80097 3.43474 2.78483 3.63048 2.93007L3.68656 2.97848L7.99967 7.29136L12.3128 2.97848C12.508 2.78322 12.8246 2.78322 13.0199 2.97848C13.2152 3.17374 13.2152 3.49032 13.0199 3.68558L8.70701 7.9987L13.0199 12.3118C13.1974 12.4893 13.2135 12.7671 13.0683 12.9628L13.0199 13.0189C12.8424 13.1964 12.5646 13.2126 12.3689 13.0673L12.3128 13.0189L7.99967 8.70603L3.68656 13.0189C3.4913 13.2142 3.17472 13.2142 2.97945 13.0189C2.78419 12.8237 2.78419 12.5071 2.97945 12.3118L7.29234 7.9987L2.97945 3.68558C2.80194 3.50807 2.78581 3.2303 2.93104 3.03456L2.97945 2.97848L2.93104 3.03456Z" fill="#AEAEAE"/>
</svg>
