<svg width="16" height="16" viewBox="0 0 16 16" fill="none" xmlns="http://www.w3.org/2000/svg">
<path d="M8.49805 2L13.5339 2.00034L13.6007 2.00962L13.6666 2.02802L13.7073 2.04531C13.76 2.06857 13.8093 2.10226 13.8526 2.14554L13.8797 2.1749L13.9201 2.22922L13.9449 2.27257L13.9707 2.33278L13.9834 2.37553L13.9925 2.41816L13.9987 2.48029L13.9991 7.50259C13.9991 7.77874 13.7752 8.00259 13.4991 8.00259C13.2459 8.00259 13.0367 7.81449 13.0036 7.57044L12.9991 7.50259L12.9987 3.70533L3.70538 13.002L7.49906 13.0026C7.7522 13.0026 7.96139 13.1907 7.9945 13.4347L7.99906 13.5026C7.99906 13.7557 7.81096 13.9649 7.56691 13.998L7.49906 14.0026L2.47516 14.0021L2.45584 14.0002C2.4118 13.9971 2.36999 13.9879 2.33047 13.9738L2.27038 13.9479L2.25892 13.9409C2.12279 13.8673 2.02516 13.7319 2.00288 13.5723L1.99805 13.5026V8.5C1.99805 8.22386 2.2219 8 2.49805 8C2.75118 8 2.96037 8.1881 2.99348 8.43215L2.99805 8.5V12.2947L12.2914 2.99933L8.49805 3C8.24492 3 8.03572 2.8119 8.00261 2.56785L7.99805 2.5C7.99805 2.24687 8.18615 2.03767 8.4302 2.00456L8.49805 2Z" fill="#AEAEAE"/>
</svg>
