<svg width="16" height="16" viewBox="0 0 16 16" fill="none" xmlns="http://www.w3.org/2000/svg">
<path d="M14.5191 1.48234C14.6965 1.65983 14.7126 1.93761 14.5675 2.13336L14.5192 2.18945L10.3707 6.3386L14.1657 6.33924C14.4189 6.33924 14.6281 6.52734 14.6612 6.77139L14.6657 6.83924C14.6657 7.09237 14.4776 7.30156 14.2336 7.33467L14.1657 7.33924L9.1322 7.33765L9.12222 7.33682C9.0767 7.33338 9.03306 7.32364 8.992 7.30858L8.92675 7.27826C8.79012 7.20483 8.69198 7.06918 8.66957 6.90918L8.66472 6.83924V1.83664C8.66472 1.5605 8.88858 1.33664 9.16472 1.33664C9.41785 1.33664 9.62705 1.52475 9.66016 1.7688L9.66472 1.83664L9.66465 5.6306L13.8125 1.48243C14.0076 1.28714 14.3239 1.2871 14.5191 1.48234ZM7.33565 9.1708V14.1734C7.33565 14.4495 7.11179 14.6734 6.83565 14.6734C6.58252 14.6734 6.37332 14.4853 6.34022 14.2412L6.33565 14.1734L6.33532 10.3766L2.18758 14.5206C1.99234 14.7159 1.67576 14.7159 1.48047 14.5207C1.30294 14.3432 1.28677 14.0654 1.43198 13.8696L1.48039 13.8136L5.62732 9.6706L1.83463 9.6708C1.5815 9.6708 1.37231 9.4827 1.3392 9.23865L1.33463 9.1708C1.33463 8.89466 1.55849 8.6708 1.83463 8.6708L6.87082 8.67203L6.91988 8.67787L6.98484 8.69344L7.02006 8.70592L7.07761 8.7331L7.13657 8.77141C7.17384 8.79959 7.20701 8.83278 7.23509 8.87L7.27967 8.94063L7.30677 9.00297L7.32102 9.05026L7.32857 9.0867L7.33265 9.12527L7.33304 9.11966L7.33565 9.1708Z" fill="#AEAEAE"/>
</svg>
