<svg width="32" height="32" viewBox="0 0 32 32" fill="none" xmlns="http://www.w3.org/2000/svg">
<rect x="0.5" y="0.5" width="31" height="31" rx="6.5" stroke="#737373"/>
<g filter="url(#filter0_d_4540_3091)">
<path d="M10.9387 22.4453C11.2231 22.4027 11.4222 22.3387 11.536 22.2533C11.664 22.1538 11.7493 22.0044 11.792 21.8053C11.8347 21.592 11.856 21.2649 11.856 20.824V10.072C11.856 9.73067 11.8204 9.47467 11.7493 9.304C11.6924 9.13333 11.5929 9.01955 11.4507 8.96267C11.3084 8.89155 11.088 8.84178 10.7893 8.81333V8.25867L13.712 7.74667H13.84V20.824C13.84 21.2649 13.8613 21.592 13.904 21.8053C13.9467 22.0044 14.0249 22.1538 14.1387 22.2533C14.2667 22.3387 14.4658 22.4027 14.736 22.4453V23H10.9387V22.4453ZM18.7253 23L14.352 17.8373L15.8453 16.6427L21.4133 22.936V23H18.7253ZM13.5413 19.2667L13.6267 17.6027H13.968L17.0187 14.68C17.4027 14.3102 17.616 14.0329 17.6587 13.848C17.7156 13.6489 17.5947 13.5209 17.296 13.464V12.9093H21.0933V13.464C20.496 13.5636 19.9982 13.72 19.6 13.9333C19.216 14.1467 18.7609 14.4951 18.2347 14.9787L13.5413 19.2667Z" fill="#737373"/>
</g>
<defs>
<filter id="filter0_d_4540_3091" x="6.1224" y="3.74609" width="19.9574" height="24.5872" filterUnits="userSpaceOnUse" color-interpolation-filters="sRGB">
<feFlood flood-opacity="0" result="BackgroundImageFix"/>
<feColorMatrix in="SourceAlpha" type="matrix" values="0 0 0 0 0 0 0 0 0 0 0 0 0 0 0 0 0 0 127 0" result="hardAlpha"/>
<feOffset dy="0.666667"/>
<feGaussianBlur stdDeviation="2.33333"/>
<feComposite in2="hardAlpha" operator="out"/>
<feColorMatrix type="matrix" values="0 0 0 0 0.266667 0 0 0 0 0.266667 0 0 0 0 0.266667 0 0 0 0.1 0"/>
<feBlend mode="normal" in2="BackgroundImageFix" result="effect1_dropShadow_4540_3091"/>
<feBlend mode="normal" in="SourceGraphic" in2="effect1_dropShadow_4540_3091" result="shape"/>
</filter>
</defs>
</svg>
