<svg width="16" height="16" viewBox="0 0 16 16" fill="none" xmlns="http://www.w3.org/2000/svg">
<path d="M2 3.83333C2 2.82081 2.82081 2 3.83333 2H10.4763C11.0509 2 11.602 2.22827 12.0084 2.6346L13.3654 3.99163C13.7717 4.39795 14 4.94905 14 5.52369V12.1667C14 13.1792 13.1792 14 12.1667 14H3.83333C2.82081 14 2 13.1792 2 12.1667V3.83333ZM3.83333 3C3.3731 3 3 3.3731 3 3.83333V12.1667C3 12.6269 3.3731 13 3.83333 13H4V9.5C4 8.67157 4.67157 8 5.5 8H10.5C11.3284 8 12 8.67157 12 9.5V13H12.1667C12.6269 13 13 12.6269 13 12.1667V5.52369C13 5.21427 12.8771 4.91752 12.6583 4.69873L11.3013 3.34171C11.1279 3.16831 10.9055 3.05513 10.6667 3.01563V4.83333C10.6667 5.66176 9.99509 6.33333 9.16667 6.33333H6.16667C5.33824 6.33333 4.66667 5.66176 4.66667 4.83333V3H3.83333ZM11 13V9.5C11 9.22386 10.7761 9 10.5 9H5.5C5.22386 9 5 9.22386 5 9.5V13H11ZM5.66667 3V4.83333C5.66667 5.10948 5.89052 5.33333 6.16667 5.33333H9.16667C9.44281 5.33333 9.66667 5.10948 9.66667 4.83333V3H5.66667Z" fill="#0E6BE5"/>
<path d="M2 3.83333C2 2.82081 2.82081 2 3.83333 2H10.4763C11.0509 2 11.602 2.22827 12.0084 2.6346L13.3654 3.99163C13.7717 4.39795 14 4.94905 14 5.52369V12.1667C14 13.1792 13.1792 14 12.1667 14H3.83333C2.82081 14 2 13.1792 2 12.1667V3.83333ZM3.83333 3C3.3731 3 3 3.3731 3 3.83333V12.1667C3 12.6269 3.3731 13 3.83333 13H4V9.5C4 8.67157 4.67157 8 5.5 8H10.5C11.3284 8 12 8.67157 12 9.5V13H12.1667C12.6269 13 13 12.6269 13 12.1667V5.52369C13 5.21427 12.8771 4.91752 12.6583 4.69873L11.3013 3.34171C11.1279 3.16831 10.9055 3.05513 10.6667 3.01563V4.83333C10.6667 5.66176 9.99509 6.33333 9.16667 6.33333H6.16667C5.33824 6.33333 4.66667 5.66176 4.66667 4.83333V3H3.83333ZM11 13V9.5C11 9.22386 10.7761 9 10.5 9H5.5C5.22386 9 5 9.22386 5 9.5V13H11ZM5.66667 3V4.83333C5.66667 5.10948 5.89052 5.33333 6.16667 5.33333H9.16667C9.44281 5.33333 9.66667 5.10948 9.66667 4.83333V3H5.66667Z" fill="#565656" fill-opacity="0.76"/>
<path d="M2 3.83333C2 2.82081 2.82081 2 3.83333 2H10.4763C11.0509 2 11.602 2.22827 12.0084 2.6346L13.3654 3.99163C13.7717 4.39795 14 4.94905 14 5.52369V12.1667C14 13.1792 13.1792 14 12.1667 14H3.83333C2.82081 14 2 13.1792 2 12.1667V3.83333ZM3.83333 3C3.3731 3 3 3.3731 3 3.83333V12.1667C3 12.6269 3.3731 13 3.83333 13H4V9.5C4 8.67157 4.67157 8 5.5 8H10.5C11.3284 8 12 8.67157 12 9.5V13H12.1667C12.6269 13 13 12.6269 13 12.1667V5.52369C13 5.21427 12.8771 4.91752 12.6583 4.69873L11.3013 3.34171C11.1279 3.16831 10.9055 3.05513 10.6667 3.01563V4.83333C10.6667 5.66176 9.99509 6.33333 9.16667 6.33333H6.16667C5.33824 6.33333 4.66667 5.66176 4.66667 4.83333V3H3.83333ZM11 13V9.5C11 9.22386 10.7761 9 10.5 9H5.5C5.22386 9 5 9.22386 5 9.5V13H11ZM5.66667 3V4.83333C5.66667 5.10948 5.89052 5.33333 6.16667 5.33333H9.16667C9.44281 5.33333 9.66667 5.10948 9.66667 4.83333V3H5.66667Z" fill="#AEAEAE"/>
</svg>
