<svg width="16" height="16" viewBox="0 0 16 16" fill="none" xmlns="http://www.w3.org/2000/svg">
<path d="M8.00812 1.5C8.49743 1.50564 8.98484 1.56217 9.46246 1.66869C9.67095 1.71519 9.82688 1.88901 9.85054 2.10131L9.96401 3.1192C10.0154 3.58657 10.41 3.94056 10.8804 3.94105C11.0069 3.94125 11.1319 3.91492 11.2488 3.86322L12.1825 3.45304C12.3767 3.36773 12.6036 3.41424 12.7486 3.56908C13.4234 4.28976 13.926 5.1541 14.2185 6.09706C14.2815 6.30039 14.2089 6.52136 14.0376 6.64767L13.2099 7.25773C12.9738 7.43119 12.8344 7.70667 12.8344 7.99964C12.8344 8.2926 12.9738 8.56808 13.2104 8.74193L14.0388 9.3522C14.2102 9.47849 14.2829 9.69949 14.2198 9.90286C13.9274 10.8457 13.4251 11.7099 12.7507 12.4307C12.6059 12.5855 12.3792 12.6322 12.185 12.5471L11.2474 12.1363C10.9792 12.019 10.6712 12.0362 10.4177 12.1826C10.1642 12.3291 9.99551 12.5875 9.9633 12.8785L9.85058 13.8963C9.82734 14.1061 9.67477 14.2788 9.46935 14.3277C8.50372 14.5574 7.49765 14.5574 6.53202 14.3277C6.3266 14.2788 6.17403 14.1061 6.15079 13.8963L6.03824 12.88C6.00518 12.5895 5.83623 12.332 5.58295 12.186C5.32967 12.04 5.02214 12.0229 4.7548 12.1396L3.81705 12.5504C3.62281 12.6355 3.39602 12.5888 3.25119 12.434C2.57642 11.7123 2.07413 10.847 1.78213 9.9032C1.71924 9.69991 1.79191 9.47908 1.96323 9.35287L2.79212 8.74221C3.02821 8.56875 3.16765 8.29327 3.16765 8.0003C3.16765 7.70734 3.02821 7.43186 2.79181 7.25817L1.96344 6.64856C1.79186 6.5223 1.71913 6.30119 1.78224 6.09772C2.07475 5.15477 2.5773 4.29043 3.25208 3.56974C3.39706 3.41491 3.62396 3.36839 3.81816 3.45371L4.75175 3.86382C5.02037 3.9817 5.3292 3.9639 5.58385 3.81513C5.83739 3.66806 6.00619 3.40948 6.03878 3.11843L6.15216 2.10131C6.17584 1.8889 6.33191 1.71503 6.54054 1.66863C7.01872 1.56228 7.50663 1.50577 8.00812 1.5ZM8.00824 2.49993C7.70555 2.5035 7.40371 2.52962 7.10522 2.57801L7.0326 3.22946C6.96471 3.83578 6.61336 4.37401 6.08695 4.67935C5.55731 4.98878 4.91158 5.02602 4.34972 4.77944L3.75086 4.51637C3.36957 4.97915 3.06609 5.5009 2.85235 6.06112L3.38421 6.45253C3.87675 6.81441 4.16765 7.38911 4.16765 8.0003C4.16765 8.6115 3.87675 9.1862 3.38473 9.5477L2.85203 9.94015C3.06559 10.5014 3.36912 11.0241 3.75067 11.4878L4.35409 11.2234C4.91282 10.9794 5.55416 11.0152 6.08235 11.3196C6.61054 11.6241 6.96288 12.1612 7.03199 12.7684L7.10464 13.4243C7.69773 13.5252 8.30364 13.5252 8.89674 13.4243L8.96937 12.7684C9.03657 12.1614 9.3885 11.6225 9.91732 11.3168C10.4461 11.0112 11.0888 10.9754 11.6485 11.2203L12.2515 11.4845C12.6327 11.0215 12.9361 10.4996 13.1498 9.93932L12.6178 9.54741C12.1253 9.18553 11.8344 8.61083 11.8344 7.99964C11.8344 7.38845 12.1253 6.81374 12.6172 6.45232L13.1485 6.06073C12.9347 5.50041 12.6312 4.97856 12.2498 4.51571L11.6522 4.77824C11.4086 4.886 11.1452 4.94147 10.8791 4.94105C9.89932 4.94003 9.07702 4.20237 8.97008 3.22922L8.89747 2.5778C8.60044 2.52946 8.30176 2.50341 8.00824 2.49993ZM7.9998 5.49997C9.38051 5.49997 10.4998 6.61925 10.4998 7.99997C10.4998 9.38068 9.38051 10.5 7.9998 10.5C6.61909 10.5 5.4998 9.38068 5.4998 7.99997C5.4998 6.61925 6.61909 5.49997 7.9998 5.49997ZM7.9998 6.49997C7.17137 6.49997 6.4998 7.17154 6.4998 7.99997C6.4998 8.82839 7.17137 9.49997 7.9998 9.49997C8.82822 9.49997 9.4998 8.82839 9.4998 7.99997C9.4998 7.17154 8.82822 6.49997 7.9998 6.49997Z" fill="#AEAEAE"/>
</svg>
